<?xml version="1.0" encoding="UTF-8" standalone="no"?>
<!DOCTYPE svg PUBLIC "-//W3C//DTD SVG 1.1//EN"
 "http://www.w3.org/Graphics/SVG/1.1/DTD/svg11.dtd">
<!-- Generated by graphviz version 2.47.0 (20210316.0004)
 -->
<!-- Title: dependencies Pages: 1 -->
<svg width="1305pt" height="290pt"
 viewBox="0.00 0.00 1305.00 290.00" xmlns="http://www.w3.org/2000/svg" xmlns:xlink="http://www.w3.org/1999/xlink">
<g id="graph0" class="graph" transform="scale(1 1) rotate(0) translate(4 286)">
<title>dependencies</title>
<polygon fill="white" stroke="transparent" points="-4,4 -4,-286 1301,-286 1301,4 -4,4"/>
<text text-anchor="start" x="627.51" y="-42.4" font-family="sans-serif" font-weight="bold" font-size="14.00">Legend</text>
<polygon fill="#ffffb3" stroke="transparent" points="414.5,-10 414.5,-30 434.5,-30 434.5,-10 414.5,-10"/>
<text text-anchor="start" x="438.13" y="-15.4" font-family="sans-serif" font-size="14.00"> &#160;Declarations</text>
<polygon fill="#8dd3c7" stroke="transparent" points="527.5,-10 527.5,-30 547.5,-30 547.5,-10 527.5,-10"/>
<text text-anchor="start" x="551.23" y="-15.4" font-family="sans-serif" font-size="14.00"> &#160;Module</text>
<polygon fill="#80b1d3" stroke="transparent" points="613.5,-10 613.5,-30 633.5,-30 633.5,-10 613.5,-10"/>
<text text-anchor="start" x="637.28" y="-15.4" font-family="sans-serif" font-size="14.00"> &#160;Bootstrap</text>
<polygon fill="#fdb462" stroke="transparent" points="710.5,-10 710.5,-30 730.5,-30 730.5,-10 710.5,-10"/>
<text text-anchor="start" x="734.17" y="-15.4" font-family="sans-serif" font-size="14.00"> &#160;Providers</text>
<polygon fill="#fb8072" stroke="transparent" points="806.5,-10 806.5,-30 826.5,-30 826.5,-10 806.5,-10"/>
<text text-anchor="start" x="830.23" y="-15.4" font-family="sans-serif" font-size="14.00"> &#160;Exports</text>
<g id="clust1" class="cluster">
<title>cluster_AppModule</title>
<polygon fill="none" stroke="black" stroke-dasharray="1,5" points="8,-70 8,-274 702,-274 702,-70 8,-70"/>
</g>
<g id="clust2" class="cluster">
<title>cluster_AppModule_declarations</title>
<polygon fill="none" stroke="black" points="16,-78 16,-130 425,-130 425,-78 16,-78"/>
</g>
<g id="clust6" class="cluster">
<title>cluster_AppModule_imports</title>
<polygon fill="none" stroke="black" points="433,-78 433,-130 694,-130 694,-78 433,-78"/>
</g>
<g id="clust8" class="cluster">
<title>cluster_AppModule_bootstrap</title>
<polygon fill="none" stroke="black" points="302,-214 302,-266 426,-266 426,-214 302,-214"/>
</g>
<g id="clust16" class="cluster">
<title>cluster_SharedModule</title>
<polygon fill="none" stroke="black" stroke-dasharray="1,5" points="710,-138 710,-206 1289,-206 1289,-138 710,-138"/>
</g>
<g id="clust17" class="cluster">
<title>cluster_SharedModule_declarations</title>
<polygon fill="none" stroke="black" points="1007,-146 1007,-198 1281,-198 1281,-146 1007,-146"/>
</g>
<g id="clust21" class="cluster">
<title>cluster_SharedModule_exports</title>
<polygon fill="none" stroke="black" points="718,-146 718,-198 999,-198 999,-146 718,-146"/>
</g>
<!-- AppComponent -->
<g id="node1" class="node">
<title>AppComponent</title>
<polygon fill="#ffffb3" stroke="black" points="416.94,-122 311.06,-122 311.06,-86 416.94,-86 416.94,-122"/>
<text text-anchor="middle" x="364" y="-99.8" font-family="Times,serif" font-size="14.00">AppComponent</text>
</g>
<!-- AppModule -->
<g id="node4" class="node">
<title>AppModule</title>
<polygon fill="#8dd3c7" stroke="black" points="405.66,-190 402.66,-194 381.66,-194 378.66,-190 322.34,-190 322.34,-154 405.66,-154 405.66,-190"/>
<text text-anchor="middle" x="364" y="-167.8" font-family="Times,serif" font-size="14.00">AppModule</text>
</g>
<!-- AppComponent&#45;&gt;AppModule -->
<g id="edge1" class="edge">
<title>AppComponent&#45;&gt;AppModule</title>
<path fill="none" stroke="black" d="M364,-122.22C364,-122.22 364,-143.73 364,-143.73"/>
<polygon fill="black" stroke="black" points="360.5,-143.73 364,-153.73 367.5,-143.73 360.5,-143.73"/>
</g>
<!-- HomeComponent -->
<g id="node2" class="node">
<title>HomeComponent</title>
<polygon fill="#ffffb3" stroke="black" points="293.55,-122 178.45,-122 178.45,-86 293.55,-86 293.55,-122"/>
<text text-anchor="middle" x="236" y="-99.8" font-family="Times,serif" font-size="14.00">HomeComponent</text>
</g>
<!-- HomeComponent&#45;&gt;AppModule -->
<g id="edge2" class="edge">
<title>HomeComponent&#45;&gt;AppModule</title>
<path fill="none" stroke="black" d="M236,-122.27C236,-140.56 236,-166 236,-166 236,-166 312.09,-166 312.09,-166"/>
<polygon fill="black" stroke="black" points="312.09,-169.5 322.09,-166 312.09,-162.5 312.09,-169.5"/>
</g>
<!-- SummaryComponent -->
<g id="node3" class="node">
<title>SummaryComponent</title>
<polygon fill="#ffffb3" stroke="black" points="159.77,-122 24.23,-122 24.23,-86 159.77,-86 159.77,-122"/>
<text text-anchor="middle" x="92" y="-99.8" font-family="Times,serif" font-size="14.00">SummaryComponent</text>
</g>
<!-- SummaryComponent&#45;&gt;AppModule -->
<g id="edge3" class="edge">
<title>SummaryComponent&#45;&gt;AppModule</title>
<path fill="none" stroke="black" d="M92,-122.29C92,-144.21 92,-178 92,-178 92,-178 312.1,-178 312.1,-178"/>
<polygon fill="black" stroke="black" points="312.1,-181.5 322.1,-178 312.1,-174.5 312.1,-181.5"/>
</g>
<!-- AppComponent  -->
<g id="node7" class="node">
<title>AppComponent </title>
<polygon fill="#80b1d3" stroke="black" points="418.44,-258 309.56,-258 309.56,-222 418.44,-222 418.44,-258"/>
<text text-anchor="middle" x="364" y="-235.8" font-family="Times,serif" font-size="14.00">AppComponent </text>
</g>
<!-- AppModule&#45;&gt;AppComponent  -->
<g id="edge6" class="edge">
<title>AppModule&#45;&gt;AppComponent </title>
<path fill="none" stroke="black" stroke-dasharray="1,5" d="M364,-190.22C364,-190.22 364,-211.73 364,-211.73"/>
<polygon fill="black" stroke="black" points="360.5,-211.73 364,-221.73 367.5,-211.73 360.5,-211.73"/>
</g>
<!-- AppRoutingModule -->
<g id="node5" class="node">
<title>AppRoutingModule</title>
<polygon fill="#8dd3c7" stroke="black" points="569.27,-122 566.27,-126 545.27,-126 542.27,-122 440.73,-122 440.73,-86 569.27,-86 569.27,-122"/>
<text text-anchor="middle" x="505" y="-99.8" font-family="Times,serif" font-size="14.00">AppRoutingModule</text>
</g>
<!-- AppRoutingModule&#45;&gt;AppModule -->
<g id="edge4" class="edge">
<title>AppRoutingModule&#45;&gt;AppModule</title>
<path fill="none" stroke="black" d="M505,-122.22C505,-142.37 505,-172 505,-172 505,-172 415.92,-172 415.92,-172"/>
<polygon fill="black" stroke="black" points="415.92,-168.5 405.92,-172 415.92,-175.5 415.92,-168.5"/>
</g>
<!-- SharedModule -->
<g id="node6" class="node">
<title>SharedModule</title>
<polygon fill="#8dd3c7" stroke="black" points="686.42,-122 683.42,-126 662.42,-126 659.42,-122 587.58,-122 587.58,-86 686.42,-86 686.42,-122"/>
<text text-anchor="middle" x="637" y="-99.8" font-family="Times,serif" font-size="14.00">SharedModule</text>
</g>
<!-- SharedModule&#45;&gt;AppModule -->
<g id="edge5" class="edge">
<title>SharedModule&#45;&gt;AppModule</title>
<path fill="none" stroke="black" d="M620.6,-122.25C620.6,-145.02 620.6,-181 620.6,-181 620.6,-181 415.8,-181 415.8,-181"/>
<polygon fill="black" stroke="black" points="415.8,-177.5 405.8,-181 415.8,-184.5 415.8,-177.5"/>
</g>
<!-- FooterComponent  -->
<g id="node10" class="node">
<title>FooterComponent </title>
<polygon fill="#fb8072" stroke="black" points="990.88,-190 869.12,-190 869.12,-154 990.88,-154 990.88,-190"/>
<text text-anchor="middle" x="930" y="-167.8" font-family="Times,serif" font-size="14.00">FooterComponent </text>
</g>
<!-- SharedModule&#45;&gt;FooterComponent  -->
<g id="edge9" class="edge">
<title>SharedModule&#45;&gt;FooterComponent </title>
<path fill="none" stroke="black" stroke-dasharray="5,2" d="M686.37,-113C769.87,-113 930,-113 930,-113 930,-113 930,-143.98 930,-143.98"/>
<polygon fill="black" stroke="black" points="926.5,-143.98 930,-153.98 933.5,-143.98 926.5,-143.98"/>
</g>
<!-- HeaderComponent  -->
<g id="node11" class="node">
<title>HeaderComponent </title>
<polygon fill="#fb8072" stroke="black" points="851.74,-190 726.26,-190 726.26,-154 851.74,-154 851.74,-190"/>
<text text-anchor="middle" x="789" y="-167.8" font-family="Times,serif" font-size="14.00">HeaderComponent </text>
</g>
<!-- SharedModule&#45;&gt;HeaderComponent  -->
<g id="edge10" class="edge">
<title>SharedModule&#45;&gt;HeaderComponent </title>
<path fill="none" stroke="black" stroke-dasharray="5,2" d="M653.4,-122.02C653.4,-139.37 653.4,-163 653.4,-163 653.4,-163 716.36,-163 716.36,-163"/>
<polygon fill="black" stroke="black" points="716.36,-166.5 726.36,-163 716.36,-159.5 716.36,-166.5"/>
</g>
<!-- FooterComponent -->
<g id="node8" class="node">
<title>FooterComponent</title>
<polygon fill="#ffffb3" stroke="black" points="1272.88,-190 1155.12,-190 1155.12,-154 1272.88,-154 1272.88,-190"/>
<text text-anchor="middle" x="1214" y="-167.8" font-family="Times,serif" font-size="14.00">FooterComponent</text>
</g>
<!-- FooterComponent&#45;&gt;SharedModule -->
<g id="edge7" class="edge">
<title>FooterComponent&#45;&gt;SharedModule</title>
<path fill="none" stroke="black" d="M1214,-153.75C1214,-130.98 1214,-95 1214,-95 1214,-95 696.44,-95 696.44,-95"/>
<polygon fill="black" stroke="black" points="696.44,-91.5 686.44,-95 696.44,-98.5 696.44,-91.5"/>
</g>
<!-- HeaderComponent -->
<g id="node9" class="node">
<title>HeaderComponent</title>
<polygon fill="#ffffb3" stroke="black" points="1136.74,-190 1015.26,-190 1015.26,-154 1136.74,-154 1136.74,-190"/>
<text text-anchor="middle" x="1076" y="-167.8" font-family="Times,serif" font-size="14.00">HeaderComponent</text>
</g>
<!-- HeaderComponent&#45;&gt;SharedModule -->
<g id="edge8" class="edge">
<title>HeaderComponent&#45;&gt;SharedModule</title>
<path fill="none" stroke="black" d="M1076,-153.78C1076,-133.63 1076,-104 1076,-104 1076,-104 696.51,-104 696.51,-104"/>
<polygon fill="black" stroke="black" points="696.51,-100.5 686.51,-104 696.51,-107.5 696.51,-100.5"/>
</g>
</g>
</svg>
